<svg height="512" fill="green" viewBox="0 0 24 24" width="512" xmlns="http://www.w3.org/2000/svg"><g id="_3" data-name="3"><path d="m15.63 3.4a5.41 5.41 0 0 0 -4.3-1.4 5.87 5.87 0 0 0 -4.94 5.16 6.23 6.23 0 0 0 .79 4c1.41 2.43 2.68 4.63 3.76 7l.15.33a1 1 0 0 0 1.82 0l.67-1.49a54 54 0 0 1 2.79-5.07l.44-.75a6.26 6.26 0 0 0 .86-3.18 6.1 6.1 0 0 0 -2.04-4.6zm-3.63 6.6a2 2 0 1 1 2-2 2 2 0 0 1 -2 2zm7 8c0 2.28-3 4-7 4s-7-1.72-7-4c0-1.43 1.18-2.63 3-3.34.33.6.65 1.19 1 1.79-1.26.42-2 1.05-2 1.55 0 .82 1.95 2 5 2s5-1.18 5-2c0-.5-.75-1.15-2-1.57.3-.6.62-1.19 1-1.78 1.81.7 3 1.91 3 3.35z"/></g></svg>